<svg width="343" height="107" viewBox="0 0 343 107" fill="none" xmlns="http://www.w3.org/2000/svg">
<g clip-path="url(#clip0_0_195)">
<path opacity="0.5" d="M25.168 19V7.8H28.416L30.864 17.848H31.12L33.568 7.8H36.816V19H35.136V9.016H34.88L32.448 19H29.536L27.104 9.016H26.848V19H25.168ZM38.9302 19V7.8H45.9862V9.368H40.6582V12.584H45.5382V14.152H40.6582V17.432H46.0662V19H38.9302ZM51.4534 19.224C50.6108 19.224 49.8641 19.0747 49.2134 18.776C48.5628 18.4773 48.0508 18.04 47.6774 17.464C47.3148 16.8773 47.1334 16.168 47.1334 15.336V14.936H48.8454V15.336C48.8454 16.1253 49.0801 16.7173 49.5494 17.112C50.0294 17.5067 50.6641 17.704 51.4534 17.704C52.2534 17.704 52.8561 17.5387 53.2614 17.208C53.6668 16.8667 53.8694 16.4293 53.8694 15.896C53.8694 15.544 53.7734 15.256 53.5814 15.032C53.3894 14.808 53.1174 14.632 52.7654 14.504C52.4134 14.3653 51.9921 14.2373 51.5014 14.12L50.9094 13.976C50.1948 13.8053 49.5708 13.5973 49.0374 13.352C48.5148 13.096 48.1094 12.76 47.8214 12.344C47.5334 11.928 47.3894 11.3947 47.3894 10.744C47.3894 10.0827 47.5494 9.51733 47.8694 9.048C48.2001 8.57867 48.6534 8.216 49.2294 7.96C49.8054 7.704 50.4828 7.576 51.2614 7.576C52.0401 7.576 52.7334 7.70933 53.3414 7.976C53.9601 8.24267 54.4454 8.63733 54.7974 9.16C55.1494 9.68267 55.3254 10.3387 55.3254 11.128V11.704H53.6134V11.128C53.6134 10.648 53.5121 10.2587 53.3094 9.96C53.1174 9.66133 52.8454 9.44267 52.4934 9.304C52.1414 9.16533 51.7308 9.096 51.2614 9.096C50.5788 9.096 50.0454 9.24 49.6614 9.528C49.2881 9.80533 49.1014 10.1947 49.1014 10.696C49.1014 11.0373 49.1814 11.32 49.3414 11.544C49.5121 11.7573 49.7574 11.9333 50.0774 12.072C50.3974 12.2107 50.7974 12.3333 51.2774 12.44L51.8694 12.584C52.5948 12.744 53.2348 12.952 53.7894 13.208C54.3441 13.4533 54.7814 13.7893 55.1014 14.216C55.4214 14.6427 55.5814 15.192 55.5814 15.864C55.5814 16.536 55.4108 17.1227 55.0694 17.624C54.7388 18.1253 54.2641 18.52 53.6454 18.808C53.0268 19.0853 52.2961 19.224 51.4534 19.224ZM60.9812 19.224C60.1385 19.224 59.3919 19.0747 58.7412 18.776C58.0905 18.4773 57.5785 18.04 57.2052 17.464C56.8425 16.8773 56.6612 16.168 56.6612 15.336V14.936H58.3732V15.336C58.3732 16.1253 58.6079 16.7173 59.0772 17.112C59.5572 17.5067 60.1919 17.704 60.9812 17.704C61.7812 17.704 62.3839 17.5387 62.7892 17.208C63.1945 16.8667 63.3972 16.4293 63.3972 15.896C63.3972 15.544 63.3012 15.256 63.1092 15.032C62.9172 14.808 62.6452 14.632 62.2932 14.504C61.9412 14.3653 61.5199 14.2373 61.0292 14.12L60.4372 13.976C59.7225 13.8053 59.0985 13.5973 58.5652 13.352C58.0425 13.096 57.6372 12.76 57.3492 12.344C57.0612 11.928 56.9172 11.3947 56.9172 10.744C56.9172 10.0827 57.0772 9.51733 57.3972 9.048C57.7279 8.57867 58.1812 8.216 58.7572 7.96C59.3332 7.704 60.0105 7.576 60.7892 7.576C61.5679 7.576 62.2612 7.70933 62.8692 7.976C63.4879 8.24267 63.9732 8.63733 64.3252 9.16C64.6772 9.68267 64.8532 10.3387 64.8532 11.128V11.704H63.1412V11.128C63.1412 10.648 63.0399 10.2587 62.8372 9.96C62.6452 9.66133 62.3732 9.44267 62.0212 9.304C61.6692 9.16533 61.2585 9.096 60.7892 9.096C60.1065 9.096 59.5732 9.24 59.1892 9.528C58.8159 9.80533 58.6292 10.1947 58.6292 10.696C58.6292 11.0373 58.7092 11.32 58.8692 11.544C59.0399 11.7573 59.2852 11.9333 59.6052 12.072C59.9252 12.2107 60.3252 12.3333 60.8052 12.44L61.3972 12.584C62.1225 12.744 62.7625 12.952 63.3172 13.208C63.8719 13.4533 64.3092 13.7893 64.6292 14.216C64.9492 14.6427 65.1092 15.192 65.1092 15.864C65.1092 16.536 64.9385 17.1227 64.5972 17.624C64.2665 18.1253 63.7919 18.52 63.1732 18.808C62.5545 19.0853 61.8239 19.224 60.9812 19.224ZM65.8534 19L69.0534 7.8H72.0934L75.2774 19H73.5014L72.7654 16.36H68.3814L67.6454 19H65.8534ZM68.8134 14.76H72.3334L70.7014 8.872H70.4454L68.8134 14.76ZM80.3355 19.224C79.5355 19.224 78.8208 19.0533 78.1915 18.712C77.5622 18.36 77.0662 17.848 76.7035 17.176C76.3408 16.504 76.1595 15.6827 76.1595 14.712V12.088C76.1595 10.6267 76.5595 9.512 77.3595 8.744C78.1595 7.96533 79.2422 7.576 80.6075 7.576C81.9515 7.576 82.9862 7.944 83.7115 8.68C84.4368 9.40533 84.7995 10.3813 84.7995 11.608V11.688H83.0875V11.56C83.0875 11.1013 82.9968 10.6907 82.8155 10.328C82.6342 9.95467 82.3622 9.66133 81.9995 9.448C81.6368 9.23467 81.1728 9.128 80.6075 9.128C79.7542 9.128 79.0875 9.38933 78.6075 9.912C78.1275 10.424 77.8875 11.1387 77.8875 12.056V14.744C77.8875 15.6507 78.1275 16.3707 78.6075 16.904C79.0875 17.4267 79.7595 17.688 80.6235 17.688C81.4768 17.688 82.1008 17.4533 82.4955 16.984C82.8902 16.5147 83.0875 15.9067 83.0875 15.16V14.952H80.0795V13.464H84.7995V19H83.1995V17.864H82.9435C82.8475 18.0667 82.7035 18.2747 82.5115 18.488C82.3302 18.7013 82.0635 18.8773 81.7115 19.016C81.3702 19.1547 80.9115 19.224 80.3355 19.224ZM86.8034 19V7.8H93.8594V9.368H88.5314V12.584H93.4114V14.152H88.5314V17.432H93.9394V19H86.8034Z" fill="white"/>
<rect y="106" width="343" height="1" fill="white"/>
</g>
<defs>
<clipPath id="clip0_0_195">
<rect width="343" height="107" fill="white"/>
</clipPath>
</defs>
</svg>
