<svg width="265" height="129" viewBox="0 0 265 129" fill="none" xmlns="http://www.w3.org/2000/svg">
<g opacity="0.25">
<path d="M264.5 40C264.5 42.5213 262.806 45.0875 259.319 47.659C255.846 50.2209 250.692 52.713 244.007 55.0989C230.642 59.8685 211.275 64.1724 187.309 67.7899C139.385 75.0237 73.1608 79.5 0 79.5C-73.1608 79.5 -139.385 75.0237 -187.309 67.7899C-211.275 64.1724 -230.642 59.8685 -244.007 55.0989C-250.692 52.713 -255.846 50.2209 -259.319 47.659C-262.806 45.0875 -264.5 42.5213 -264.5 40C-264.5 37.4787 -262.806 34.9125 -259.319 32.341C-255.846 29.7791 -250.692 27.287 -244.007 24.9011C-230.642 20.1315 -211.275 15.8276 -187.309 12.2101C-139.385 4.97631 -73.1608 0.5 0 0.5C73.1608 0.5 139.385 4.97631 187.309 12.2101C211.275 15.8276 230.642 20.1315 244.007 24.9011C250.692 27.287 255.846 29.7791 259.319 32.341C262.806 34.9125 264.5 37.4787 264.5 40Z" stroke="white"/>
<path d="M264.5 52C264.5 54.5213 262.806 57.0875 259.319 59.659C255.846 62.2209 250.692 64.713 244.007 67.0989C230.642 71.8685 211.275 76.1724 187.309 79.7899C139.385 87.0237 73.1608 91.5 0 91.5C-73.1608 91.5 -139.385 87.0237 -187.309 79.7899C-211.275 76.1724 -230.642 71.8685 -244.007 67.0989C-250.692 64.713 -255.846 62.2209 -259.319 59.659C-262.806 57.0875 -264.5 54.5213 -264.5 52C-264.5 49.4787 -262.806 46.9125 -259.319 44.341C-255.846 41.7791 -250.692 39.287 -244.007 36.9011C-230.642 32.1315 -211.275 27.8276 -187.309 24.2101C-139.385 16.9763 -73.1608 12.5 0 12.5C73.1608 12.5 139.385 16.9763 187.309 24.2101C211.275 27.8276 230.642 32.1315 244.007 36.9011C250.692 39.287 255.846 41.7791 259.319 44.341C262.806 46.9125 264.5 49.4787 264.5 52Z" stroke="white"/>
<path d="M264.5 65C264.5 67.5213 262.806 70.0875 259.319 72.659C255.846 75.2209 250.692 77.713 244.007 80.0989C230.642 84.8685 211.275 89.1724 187.309 92.7899C139.385 100.024 73.1608 104.5 0 104.5C-73.1608 104.5 -139.385 100.024 -187.309 92.7899C-211.275 89.1724 -230.642 84.8685 -244.007 80.0989C-250.692 77.713 -255.846 75.2209 -259.319 72.659C-262.806 70.0875 -264.5 67.5213 -264.5 65C-264.5 62.4787 -262.806 59.9125 -259.319 57.341C-255.846 54.7791 -250.692 52.287 -244.007 49.9011C-230.642 45.1315 -211.275 40.8276 -187.309 37.2101C-139.385 29.9763 -73.1608 25.5 0 25.5C73.1608 25.5 139.385 29.9763 187.309 37.2101C211.275 40.8276 230.642 45.1315 244.007 49.9011C250.692 52.287 255.846 54.7791 259.319 57.341C262.806 59.9125 264.5 62.4787 264.5 65Z" stroke="white"/>
<path d="M264.5 77C264.5 79.5213 262.806 82.0875 259.319 84.659C255.846 87.2209 250.692 89.713 244.007 92.0989C230.642 96.8685 211.275 101.172 187.309 104.79C139.385 112.024 73.1608 116.5 0 116.5C-73.1608 116.5 -139.385 112.024 -187.309 104.79C-211.275 101.172 -230.642 96.8685 -244.007 92.0989C-250.692 89.713 -255.846 87.2209 -259.319 84.659C-262.806 82.0875 -264.5 79.5213 -264.5 77C-264.5 74.4787 -262.806 71.9125 -259.319 69.341C-255.846 66.7791 -250.692 64.287 -244.007 61.9011C-230.642 57.1315 -211.275 52.8276 -187.309 49.2101C-139.385 41.9763 -73.1608 37.5 0 37.5C73.1608 37.5 139.385 41.9763 187.309 49.2101C211.275 52.8276 230.642 57.1315 244.007 61.9011C250.692 64.287 255.846 66.7791 259.319 69.341C262.806 71.9125 264.5 74.4787 264.5 77Z" stroke="white"/>
<path d="M264.5 89C264.5 91.5213 262.806 94.0875 259.319 96.659C255.846 99.2209 250.692 101.713 244.007 104.099C230.642 108.868 211.275 113.172 187.309 116.79C139.385 124.024 73.1608 128.5 0 128.5C-73.1608 128.5 -139.385 124.024 -187.309 116.79C-211.275 113.172 -230.642 108.868 -244.007 104.099C-250.692 101.713 -255.846 99.2209 -259.319 96.659C-262.806 94.0875 -264.5 91.5213 -264.5 89C-264.5 86.4787 -262.806 83.9125 -259.319 81.341C-255.846 78.7791 -250.692 76.287 -244.007 73.9011C-230.642 69.1315 -211.275 64.8276 -187.309 61.2101C-139.385 53.9763 -73.1608 49.5 0 49.5C73.1608 49.5 139.385 53.9763 187.309 61.2101C211.275 64.8276 230.642 69.1315 244.007 73.9011C250.692 76.287 255.846 78.7791 259.319 81.341C262.806 83.9125 264.5 86.4787 264.5 89Z" stroke="white"/>
</g>
</svg>
