<svg width="430" height="129" viewBox="0 0 430 129" fill="none" xmlns="http://www.w3.org/2000/svg">
<g opacity="0.25">
<path d="M429.5 40C429.5 42.5213 427.806 45.0875 424.319 47.659C420.846 50.2209 415.692 52.713 409.007 55.0989C395.642 59.8685 376.275 64.1724 352.309 67.7899C304.385 75.0237 238.161 79.5 165 79.5C91.8392 79.5 25.6154 75.0237 -22.3087 67.7899C-46.2746 64.1724 -65.6419 59.8685 -79.0069 55.0989C-85.6925 52.713 -90.8463 50.2209 -94.3193 47.659C-97.8055 45.0875 -99.5 42.5213 -99.5 40C-99.5 37.4787 -97.8055 34.9125 -94.3193 32.341C-90.8463 29.7791 -85.6925 27.287 -79.0069 24.9011C-65.6419 20.1315 -46.2746 15.8276 -22.3087 12.2101C25.6154 4.97631 91.8392 0.5 165 0.5C238.161 0.5 304.385 4.97631 352.309 12.2101C376.275 15.8276 395.642 20.1315 409.007 24.9011C415.692 27.287 420.846 29.7791 424.319 32.341C427.806 34.9125 429.5 37.4787 429.5 40Z" stroke="white"/>
<path d="M429.5 52C429.5 54.5213 427.806 57.0875 424.319 59.659C420.846 62.2209 415.692 64.713 409.007 67.0989C395.642 71.8685 376.275 76.1724 352.309 79.7899C304.385 87.0237 238.161 91.5 165 91.5C91.8392 91.5 25.6154 87.0237 -22.3087 79.7899C-46.2746 76.1724 -65.6419 71.8685 -79.0069 67.0989C-85.6925 64.713 -90.8463 62.2209 -94.3193 59.659C-97.8055 57.0875 -99.5 54.5213 -99.5 52C-99.5 49.4787 -97.8055 46.9125 -94.3193 44.341C-90.8463 41.7791 -85.6925 39.287 -79.0069 36.9011C-65.6419 32.1315 -46.2746 27.8276 -22.3087 24.2101C25.6154 16.9763 91.8392 12.5 165 12.5C238.161 12.5 304.385 16.9763 352.309 24.2101C376.275 27.8276 395.642 32.1315 409.007 36.9011C415.692 39.287 420.846 41.7791 424.319 44.341C427.806 46.9125 429.5 49.4787 429.5 52Z" stroke="white"/>
<path d="M429.5 65C429.5 67.5213 427.806 70.0875 424.319 72.659C420.846 75.2209 415.692 77.713 409.007 80.0989C395.642 84.8685 376.275 89.1724 352.309 92.7899C304.385 100.024 238.161 104.5 165 104.5C91.8392 104.5 25.6154 100.024 -22.3087 92.7899C-46.2746 89.1724 -65.6419 84.8685 -79.0069 80.0989C-85.6925 77.713 -90.8463 75.2209 -94.3193 72.659C-97.8055 70.0875 -99.5 67.5213 -99.5 65C-99.5 62.4787 -97.8055 59.9125 -94.3193 57.341C-90.8463 54.7791 -85.6925 52.287 -79.0069 49.9011C-65.6419 45.1315 -46.2746 40.8276 -22.3087 37.2101C25.6154 29.9763 91.8392 25.5 165 25.5C238.161 25.5 304.385 29.9763 352.309 37.2101C376.275 40.8276 395.642 45.1315 409.007 49.9011C415.692 52.287 420.846 54.7791 424.319 57.341C427.806 59.9125 429.5 62.4787 429.5 65Z" stroke="white"/>
<path d="M429.5 77C429.5 79.5213 427.806 82.0875 424.319 84.659C420.846 87.2209 415.692 89.713 409.007 92.0989C395.642 96.8685 376.275 101.172 352.309 104.79C304.385 112.024 238.161 116.5 165 116.5C91.8392 116.5 25.6154 112.024 -22.3087 104.79C-46.2746 101.172 -65.6419 96.8685 -79.0069 92.0989C-85.6925 89.713 -90.8463 87.2209 -94.3193 84.659C-97.8055 82.0875 -99.5 79.5213 -99.5 77C-99.5 74.4787 -97.8055 71.9125 -94.3193 69.341C-90.8463 66.7791 -85.6925 64.287 -79.0069 61.9011C-65.6419 57.1315 -46.2746 52.8276 -22.3087 49.2101C25.6154 41.9763 91.8392 37.5 165 37.5C238.161 37.5 304.385 41.9763 352.309 49.2101C376.275 52.8276 395.642 57.1315 409.007 61.9011C415.692 64.287 420.846 66.7791 424.319 69.341C427.806 71.9125 429.5 74.4787 429.5 77Z" stroke="white"/>
<path d="M429.5 89C429.5 91.5213 427.806 94.0875 424.319 96.659C420.846 99.2209 415.692 101.713 409.007 104.099C395.642 108.868 376.275 113.172 352.309 116.79C304.385 124.024 238.161 128.5 165 128.5C91.8392 128.5 25.6154 124.024 -22.3087 116.79C-46.2746 113.172 -65.6419 108.868 -79.0069 104.099C-85.6925 101.713 -90.8463 99.2209 -94.3193 96.659C-97.8055 94.0875 -99.5 91.5213 -99.5 89C-99.5 86.4787 -97.8055 83.9125 -94.3193 81.341C-90.8463 78.7791 -85.6925 76.287 -79.0069 73.9011C-65.6419 69.1315 -46.2746 64.8276 -22.3087 61.2101C25.6154 53.9763 91.8392 49.5 165 49.5C238.161 49.5 304.385 53.9763 352.309 61.2101C376.275 64.8276 395.642 69.1315 409.007 73.9011C415.692 76.287 420.846 78.7791 424.319 81.341C427.806 83.9125 429.5 86.4787 429.5 89Z" stroke="white"/>
</g>
</svg>
